<?xml  version="1.0" encoding="utf-8"?><svg xmlns="http://www.w3.org/2000/svg" xmlns:xlink="http://www.w3.org/1999/xlink"><symbol viewBox="0 0 19 15" id="email" xmlns="http://www.w3.org/2000/svg"><path d="M1.824 4.637c.24.17.964.674 2.173 1.511 1.209.838 2.135 1.483 2.778 1.935.07.05.22.157.45.324.23.166.421.3.573.403.152.102.336.217.552.344.215.127.418.223.61.286.19.064.367.095.53.095h.02c.163 0 .34-.031.53-.095a3.2 3.2 0 00.61-.286c.216-.127.4-.242.552-.344.152-.103.342-.237.572-.403.23-.167.38-.274.451-.324l4.962-3.446c.516-.36.947-.795 1.293-1.304.347-.509.52-1.042.52-1.6 0-.467-.168-.867-.504-1.199a1.639 1.639 0 00-1.192-.498H1.695C1.152.036.733.22.44.587.147.955 0 1.414 0 1.965c0 .446.194.928.583 1.448.389.52.802.928 1.24 1.224z"/><path d="M17.94 5.772C15.62 7.34 13.86 8.56 12.66 9.43c-.403.296-.73.528-.981.694a6.05 6.05 0 01-1.002.509c-.417.173-.806.26-1.166.26H9.49c-.361 0-.75-.087-1.167-.26a6.056 6.056 0 01-1.002-.509c-.25-.166-.578-.398-.98-.694-.955-.7-2.711-1.92-5.27-3.658A5.616 5.616 0 010 4.849v8.419c0 .466.166.866.498 1.198.332.332.732.498 1.198.498h15.608c.466 0 .866-.166 1.198-.498.332-.332.498-.731.498-1.198V4.849c-.304.34-.657.647-1.06.923z"/></symbol><symbol viewBox="0 0 16 16" id="phone" xmlns="http://www.w3.org/2000/svg"><path d="M15.641 12.645l-2.47-2.471c-.493-.49-1.308-.476-1.817.034l-1.245 1.244a34.78 34.78 0 01-.246-.136c-.786-.436-1.862-1.033-2.994-2.166-1.136-1.135-1.733-2.213-2.17-3l-.134-.24.836-.834.41-.411c.51-.51.524-1.325.033-1.817L3.374.377C2.882-.114 2.067-.1 1.557.41l-.696.7.019.02a4.027 4.027 0 00-.574 1.011c-.134.353-.217.69-.256 1.027-.326 2.705.91 5.177 4.265 8.531 4.637 4.637 8.373 4.287 8.535 4.27a4.176 4.176 0 001.03-.259c.366-.143.71-.338 1.008-.571l.015.013.705-.69c.51-.51.524-1.326.033-1.818z"/></symbol><symbol viewBox="0 0 56 56" id="step-1" xmlns="http://www.w3.org/2000/svg"><path d="M45.283 16.27c.604 0 1.093-.49 1.093-1.094V3.28A3.285 3.285 0 0043.096 0H3.282A3.285 3.285 0 000 3.281V52.72A3.285 3.285 0 003.283 56h39.812a3.285 3.285 0 003.281-3.281V44.66a1.094 1.094 0 10-2.187 0v8.058c0 .603-.49 1.093-1.094 1.093H3.283c-.603 0-1.094-.49-1.094-1.093V3.28c0-.603.49-1.094 1.094-1.094h39.812c.603 0 1.094.491 1.094 1.094v11.895c0 .604.49 1.094 1.094 1.094z"/><path d="M23.188 5.906c-5.548 0-10.062 4.514-10.062 10.063 0 2.878 1.215 5.478 3.159 7.313.036.04.075.076.117.11a10.023 10.023 0 006.786 2.64c2.613 0 4.995-1.002 6.786-2.64a1.09 1.09 0 00.118-.11 10.035 10.035 0 003.159-7.313c0-5.549-4.514-10.063-10.063-10.063zm0 17.938a7.833 7.833 0 01-4.757-1.605 5.434 5.434 0 014.757-2.77 5.434 5.434 0 014.757 2.77 7.833 7.833 0 01-4.757 1.605zm-1.75-8.313v-.71c0-.966.785-1.75 1.75-1.75s1.75.784 1.75 1.75v.71c0 .965-.785 1.75-1.75 1.75s-1.75-.785-1.75-1.75zm8.088 5.106a7.588 7.588 0 00-3.223-2.701 3.92 3.92 0 00.823-2.405v-.71a3.942 3.942 0 00-3.938-3.938 3.942 3.942 0 00-3.937 3.937v.711c0 .905.307 1.74.823 2.405a7.588 7.588 0 00-3.223 2.701 7.832 7.832 0 01-1.538-4.668c0-4.342 3.533-7.875 7.875-7.875 4.343 0 7.875 3.533 7.875 7.875a7.833 7.833 0 01-1.537 4.668zm-.431 27.269h-5.907a1.094 1.094 0 000 2.188h5.907a1.094 1.094 0 000-2.188zm0-6.125H13.563a1.094 1.094 0 000 2.188h15.531a1.094 1.094 0 000-2.188zm0-6.125H13.563a1.094 1.094 0 000 2.188h15.531a1.094 1.094 0 000-2.188zm-19.43-5.804a1.102 1.102 0 00-.774-.32c-.288 0-.57.116-.774.32-.203.203-.32.485-.32.773 0 .288.117.57.32.773a1.1 1.1 0 001.548 0 1.097 1.097 0 000-1.546zm0 6.125a1.104 1.104 0 00-.774-.32c-.288 0-.569.116-.774.32-.203.203-.32.485-.32.773 0 .288.117.57.32.773a1.1 1.1 0 001.548 0 1.097 1.097 0 000-1.546zm0 6.125a1.104 1.104 0 00-.774-.32c-.288 0-.569.116-.774.32-.203.203-.32.485-.32.773 0 .288.117.57.32.773a1.1 1.1 0 001.548 0 1.097 1.097 0 000-1.546zm19.43-12.571H13.563a1.094 1.094 0 000 2.188h15.531a1.094 1.094 0 000-2.188zm24.608-15.277a4.564 4.564 0 00-3.486-.46 4.564 4.564 0 00-2.789 2.141l-13.764 23.84c-.075.13-.123.276-.14.425l-.968 8.679a1.094 1.094 0 001.735 1.002l7.031-5.178a1.11 1.11 0 00.299-.334l13.764-23.84a4.599 4.599 0 00-1.682-6.275zM35.007 46.637l.506-4.532 3.165 1.828-3.671 2.704zm5.266-4.31l-4.167-2.406 11.045-19.13 4.167 2.406-11.045 19.13zM53.49 19.436l-1.078 1.867-4.168-2.406 1.079-1.867a2.39 2.39 0 011.46-1.121 2.39 2.39 0 011.826.24c.557.322.955.84 1.122 1.461.166.621.08 1.27-.24 1.826z"/></symbol><symbol viewBox="0 0 59 59" id="step-2" xmlns="http://www.w3.org/2000/svg"><g clip-path="url(#dclip0)"><path d="M49.603 14.18H16.89L44.17 3.323a1.225 1.225 0 00-.905-2.277L10.293 14.179h-.93C5.043 14.18 0 16.627 0 23.542v25.26c0 6.916 5.043 9.363 9.363 9.363h40.24c4.32 0 9.363-2.447 9.363-9.362V23.554c.012-6.915-5.006-9.375-9.363-9.375zm6.928 34.623c0 6.241-4.896 6.915-6.915 6.915H9.363c-2.08 0-6.915-.674-6.915-6.915V23.554c0-6.241 4.895-6.915 6.915-6.915h40.24c2.081 0 6.916.674 6.916 6.915l.012 25.249z"/><path d="M12.116 30.004H46.85c.675 0 1.224-.548 1.224-1.224v-7.062c0-.675-.549-1.224-1.224-1.224H12.116c-.675 0-1.224.549-1.224 1.224v7.062c0 .676.549 1.224 1.224 1.224zm33.51-2.448h-8.653v-4.614h8.653v4.614zM13.34 22.942h21.186v4.614H13.34v-4.614zm30.315 11.211a9.08 9.08 0 00-9.08 9.08 9.08 9.08 0 009.08 9.082 9.081 9.081 0 100-18.162zm0 15.714a6.634 6.634 0 116.634-6.633 6.647 6.647 0 01-6.634 6.633zM26.02 42.634a4.688 4.688 0 100 9.376 4.688 4.688 0 000-9.376zm0 6.915a2.24 2.24 0 11-.001-4.478 2.24 2.24 0 010 4.478zm-12.141-6.915a4.688 4.688 0 10.001 9.376 4.688 4.688 0 00-.001-9.376zm0 6.915a2.24 2.24 0 11-.001-4.478 2.24 2.24 0 010 4.478z"/></g><defs><clipPath id="dclip0"><path d="M0 0h59v59H0z"/></clipPath></defs></symbol><symbol viewBox="0 0 55 55" id="step-3" xmlns="http://www.w3.org/2000/svg"><path d="M51.367 29.159a3.61 3.61 0 00-1.73.438 3.638 3.638 0 00-3.389-2.324c-.997 0-1.901.404-2.559 1.057a3.621 3.621 0 00-4.043-.739v-3.104c.033.003.066.005.1.005h8.916a3.334 3.334 0 003.33-3.33v-4.62a1.074 1.074 0 00-2.148 0v4.62c0 .652-.53 1.182-1.182 1.182h-8.916c-.034 0-.067.002-.1.005v-2.3a3.637 3.637 0 00-3.634-3.634 3.637 3.637 0 00-3.633 3.633v2.296H30.83c-.651 0-1.181-.53-1.181-1.182V3.33c0-.651.53-1.182 1.181-1.182h17.832c.652 0 1.182.53 1.182 1.182v4.62a1.074 1.074 0 002.148 0V3.33A3.334 3.334 0 0048.662 0H30.83a3.334 3.334 0 00-3.33 3.33v17.832a3.334 3.334 0 003.33 3.33h1.55v9.111l-3.703 5.427a6.286 6.286 0 00-.496 6.187l4.3 9.165a1.074 1.074 0 101.945-.913l-4.3-9.165a4.129 4.129 0 01.326-4.063l1.927-2.825v2.03a1.074 1.074 0 002.149 0V20.05a1.486 1.486 0 012.969 0v15.866a1.074 1.074 0 002.149 0v-5.009c0-.819.666-1.485 1.484-1.485.82 0 1.485.666 1.485 1.485v5.01a1.074 1.074 0 002.149 0v-5.01c0-.819.666-1.485 1.484-1.485.82 0 1.485.666 1.485 1.485v5.01a1.074 1.074 0 002.149 0v-3.124c0-.819.666-1.485 1.485-1.485.818 0 1.484.666 1.484 1.485v8.98c0 2.392-.362 4.763-1.078 7.045l-1.502 4.787a1.074 1.074 0 002.05.643l1.502-4.788A25.663 25.663 0 0055 41.773v-8.98a3.637 3.637 0 00-3.633-3.634zM21.163 0H3.331a3.334 3.334 0 00-3.33 3.33v17.832a3.334 3.334 0 003.33 3.33h4.62a1.074 1.074 0 000-2.148H3.33c-.651 0-1.182-.53-1.182-1.182V3.33c0-.651.53-1.182 1.182-1.182h17.832c.651 0 1.182.53 1.182 1.182v17.832c0 .652-.53 1.182-1.182 1.182h-4.62a1.074 1.074 0 000 2.148h4.62a3.334 3.334 0 003.33-3.33V3.33A3.334 3.334 0 0021.163 0z"/><path d="M16.779 16.778c.419-.42.419-1.1 0-1.519l-3.014-3.013 3.014-3.013a1.075 1.075 0 00-1.52-1.52l-3.013 3.014-3.013-3.013a1.075 1.075 0 00-1.519 1.52l3.013 3.012-3.013 3.013a1.074 1.074 0 001.52 1.52l3.012-3.014 3.013 3.013a1.071 1.071 0 001.52 0zM44.52 7.01l-5.354 5.352-2.247-2.247a1.075 1.075 0 00-1.52 1.52l3.008 3.006a1.07 1.07 0 001.519 0l6.112-6.113A1.075 1.075 0 0044.52 7.01zM12.246 22.343c-.282 0-.56.115-.76.315-.2.2-.314.477-.314.76a1.078 1.078 0 001.834.76c.2-.2.314-.478.314-.76 0-.283-.115-.56-.315-.76a1.08 1.08 0 00-.759-.315zm38.672-11.172c-.283 0-.56.115-.76.315-.2.2-.314.477-.314.76 0 .283.114.56.314.76a1.078 1.078 0 001.52 0c.199-.2.314-.478.314-.76 0-.283-.115-.56-.315-.76-.2-.2-.477-.315-.76-.315z"/></symbol><symbol viewBox="0 0 42 30" id="user" xmlns="http://www.w3.org/2000/svg"><path d="M0 15C0 6.73 6.73 0 15 0s15 6.73 15 15a14.96 14.96 0 01-4.869 11.05l.014.012-.486.41c-.032.027-.066.05-.098.075-.258.215-.526.418-.799.615a15.315 15.315 0 01-1.162.762l-.2.115c-.335.19-.677.37-1.026.535l-.078.034a14.861 14.861 0 01-4.926 1.326l-.148.011c-.403.034-.81.055-1.222.055-.409 0-.812-.021-1.212-.053-.05-.005-.101-.008-.152-.012-.401-.037-.797-.09-1.188-.156l-.102-.019a14.863 14.863 0 01-3.577-1.12l-.125-.058a15.057 15.057 0 01-2.09-1.194c-.1-.068-.199-.14-.299-.213a14.96 14.96 0 01-.703-.536c-.05-.041-.105-.076-.155-.119l-.499-.416.015-.013A14.961 14.961 0 010 15zm28.91 0c0-7.67-6.24-13.91-13.91-13.91S1.09 7.33 1.09 15c0 4.133 1.815 7.849 4.686 10.398.16-.11.322-.21.487-.293l4.618-2.309a1.21 1.21 0 00.672-1.087v-1.613a9.023 9.023 0 01-.336-.445 11.116 11.116 0 01-1.427-2.795 1.98 1.98 0 01-1.137-1.794V13.13c0-.473.173-.932.483-1.293V9.291c-.028-.284-.128-1.881 1.028-3.199C11.169 4.945 12.796 4.364 15 4.364s3.831.58 4.837 1.728c1.155 1.317 1.055 2.916 1.027 3.198v2.546c.31.36.483.82.483 1.292v1.934c0 .6-.269 1.16-.73 1.538-.442 1.731-1.352 3.041-1.688 3.485v1.579c0 .445.243.854.634 1.068l4.313 2.352c.138.075.274.162.41.26A13.876 13.876 0 0028.91 15zm12.444.354a.5.5 0 000-.708l-3.182-3.182a.5.5 0 10-.707.708L40.293 15l-2.828 2.828a.5.5 0 10.707.707l3.182-3.181zM33 15.5h8v-1h-8v1z"/></symbol></svg>