<svg width="19" height="15" fill="none" xmlns="http://www.w3.org/2000/svg"><path d="M1.824 4.637c.24.17.964.674 2.173 1.511 1.209.838 2.135 1.483 2.778 1.935.07.05.22.157.45.324.23.166.421.3.573.403.152.102.336.217.552.344.215.127.418.223.61.286.19.064.367.095.53.095h.02c.163 0 .34-.031.53-.095a3.2 3.2 0 00.61-.286c.216-.127.4-.242.552-.344.152-.103.342-.237.572-.403.23-.167.38-.274.451-.324l4.962-3.446c.516-.36.947-.795 1.293-1.304.347-.509.52-1.042.52-1.6 0-.467-.168-.867-.504-1.199a1.639 1.639 0 00-1.192-.498H1.695C1.152.036.733.22.44.587.147.955 0 1.414 0 1.965c0 .446.194.928.583 1.448.389.52.802.928 1.24 1.224z" fill="#86BC42"/><path d="M17.94 5.772C15.62 7.34 13.86 8.56 12.66 9.43c-.403.296-.73.528-.981.694a6.05 6.05 0 01-1.002.509c-.417.173-.806.26-1.166.26H9.49c-.361 0-.75-.087-1.167-.26a6.056 6.056 0 01-1.002-.509c-.25-.166-.578-.398-.98-.694-.955-.7-2.711-1.92-5.27-3.658A5.616 5.616 0 010 4.849v8.419c0 .466.166.866.498 1.198.332.332.732.498 1.198.498h15.608c.466 0 .866-.166 1.198-.498.332-.332.498-.731.498-1.198V4.849c-.304.34-.657.647-1.06.923z" fill="#86BC42"/></svg>