<svg width="56" height="56" fill="none" xmlns="http://www.w3.org/2000/svg"><path d="M45.283 16.27c.604 0 1.093-.49 1.093-1.094V3.28A3.285 3.285 0 0043.096 0H3.282A3.285 3.285 0 000 3.281V52.72A3.285 3.285 0 003.283 56h39.812a3.285 3.285 0 003.281-3.281V44.66a1.094 1.094 0 10-2.187 0v8.058c0 .603-.49 1.093-1.094 1.093H3.283c-.603 0-1.094-.49-1.094-1.093V3.28c0-.603.49-1.094 1.094-1.094h39.812c.603 0 1.094.491 1.094 1.094v11.895c0 .604.49 1.094 1.094 1.094z" fill="#fff"/><path d="M23.188 5.906c-5.548 0-10.062 4.514-10.062 10.063 0 2.878 1.215 5.478 3.159 7.313.036.04.075.076.117.11a10.023 10.023 0 006.786 2.64c2.613 0 4.995-1.002 6.786-2.64a1.09 1.09 0 00.118-.11 10.035 10.035 0 003.159-7.313c0-5.549-4.514-10.063-10.063-10.063zm0 17.938a7.833 7.833 0 01-4.757-1.605 5.434 5.434 0 014.757-2.77 5.434 5.434 0 014.757 2.77 7.833 7.833 0 01-4.757 1.605zm-1.75-8.313v-.71c0-.966.785-1.75 1.75-1.75s1.75.784 1.75 1.75v.71c0 .965-.785 1.75-1.75 1.75s-1.75-.785-1.75-1.75zm8.088 5.106a7.588 7.588 0 00-3.223-2.701 3.92 3.92 0 00.823-2.405v-.71a3.942 3.942 0 00-3.938-3.938 3.942 3.942 0 00-3.937 3.937v.711c0 .905.307 1.74.823 2.405a7.588 7.588 0 00-3.223 2.701 7.832 7.832 0 01-1.538-4.668c0-4.342 3.533-7.875 7.875-7.875 4.343 0 7.875 3.533 7.875 7.875a7.833 7.833 0 01-1.537 4.668zm-.431 27.269h-5.907a1.094 1.094 0 000 2.188h5.907a1.094 1.094 0 000-2.188zm0-6.125H13.563a1.094 1.094 0 000 2.188h15.531a1.094 1.094 0 000-2.188zm0-6.125H13.563a1.094 1.094 0 000 2.188h15.531a1.094 1.094 0 000-2.188zm-19.43-5.804a1.102 1.102 0 00-.774-.32c-.288 0-.57.116-.774.32-.203.203-.32.485-.32.773 0 .288.117.57.32.773a1.1 1.1 0 001.548 0 1.097 1.097 0 000-1.546zm0 6.125a1.104 1.104 0 00-.774-.32c-.288 0-.569.116-.774.32-.203.203-.32.485-.32.773 0 .288.117.57.32.773a1.1 1.1 0 001.548 0 1.097 1.097 0 000-1.546zm0 6.125a1.104 1.104 0 00-.774-.32c-.288 0-.569.116-.774.32-.203.203-.32.485-.32.773 0 .288.117.57.32.773a1.1 1.1 0 001.548 0 1.097 1.097 0 000-1.546zm19.43-12.571H13.563a1.094 1.094 0 000 2.188h15.531a1.094 1.094 0 000-2.188zm24.608-15.277a4.564 4.564 0 00-3.486-.46 4.564 4.564 0 00-2.789 2.141l-13.764 23.84c-.075.13-.123.276-.14.425l-.968 8.679a1.094 1.094 0 001.735 1.002l7.031-5.178a1.11 1.11 0 00.299-.334l13.764-23.84a4.599 4.599 0 00-1.682-6.275zM35.007 46.637l.506-4.532 3.165 1.828-3.671 2.704zm5.266-4.31l-4.167-2.406 11.045-19.13 4.167 2.406-11.045 19.13zM53.49 19.436l-1.078 1.867-4.168-2.406 1.079-1.867a2.39 2.39 0 011.46-1.121 2.39 2.39 0 011.826.24c.557.322.955.84 1.122 1.461.166.621.08 1.27-.24 1.826z" fill="#fff"/></svg>