<svg width="55" height="55" fill="none" xmlns="http://www.w3.org/2000/svg"><path d="M51.367 29.159a3.61 3.61 0 00-1.73.438 3.638 3.638 0 00-3.389-2.324c-.997 0-1.901.404-2.559 1.057a3.621 3.621 0 00-4.043-.739v-3.104c.033.003.066.005.1.005h8.916a3.334 3.334 0 003.33-3.33v-4.62a1.074 1.074 0 00-2.148 0v4.62c0 .652-.53 1.182-1.182 1.182h-8.916c-.034 0-.067.002-.1.005v-2.3a3.637 3.637 0 00-3.634-3.634 3.637 3.637 0 00-3.633 3.633v2.296H30.83c-.651 0-1.181-.53-1.181-1.182V3.33c0-.651.53-1.182 1.181-1.182h17.832c.652 0 1.182.53 1.182 1.182v4.62a1.074 1.074 0 002.148 0V3.33A3.334 3.334 0 0048.662 0H30.83a3.334 3.334 0 00-3.33 3.33v17.832a3.334 3.334 0 003.33 3.33h1.55v9.111l-3.703 5.427a6.286 6.286 0 00-.496 6.187l4.3 9.165a1.074 1.074 0 101.945-.913l-4.3-9.165a4.129 4.129 0 01.326-4.063l1.927-2.825v2.03a1.074 1.074 0 002.149 0V20.05a1.486 1.486 0 012.969 0v15.866a1.074 1.074 0 002.149 0v-5.009c0-.819.666-1.485 1.484-1.485.82 0 1.485.666 1.485 1.485v5.01a1.074 1.074 0 002.149 0v-5.01c0-.819.666-1.485 1.484-1.485.82 0 1.485.666 1.485 1.485v5.01a1.074 1.074 0 002.149 0v-3.124c0-.819.666-1.485 1.485-1.485.818 0 1.484.666 1.484 1.485v8.98c0 2.392-.362 4.763-1.078 7.045l-1.502 4.787a1.074 1.074 0 002.05.643l1.502-4.788A25.663 25.663 0 0055 41.773v-8.98a3.637 3.637 0 00-3.633-3.634zM21.163 0H3.331a3.334 3.334 0 00-3.33 3.33v17.832a3.334 3.334 0 003.33 3.33h4.62a1.074 1.074 0 000-2.148H3.33c-.651 0-1.182-.53-1.182-1.182V3.33c0-.651.53-1.182 1.182-1.182h17.832c.651 0 1.182.53 1.182 1.182v17.832c0 .652-.53 1.182-1.182 1.182h-4.62a1.074 1.074 0 000 2.148h4.62a3.334 3.334 0 003.33-3.33V3.33A3.334 3.334 0 0021.163 0z" fill="#fff"/><path d="M16.779 16.778c.419-.42.419-1.1 0-1.519l-3.014-3.013 3.014-3.013a1.075 1.075 0 00-1.52-1.52l-3.013 3.014-3.013-3.013a1.075 1.075 0 00-1.519 1.52l3.013 3.012-3.013 3.013a1.074 1.074 0 001.52 1.52l3.012-3.014 3.013 3.013a1.071 1.071 0 001.52 0zM44.52 7.01l-5.354 5.352-2.247-2.247a1.075 1.075 0 00-1.52 1.52l3.008 3.006a1.07 1.07 0 001.519 0l6.112-6.113A1.075 1.075 0 0044.52 7.01zM12.246 22.343c-.282 0-.56.115-.76.315-.2.2-.314.477-.314.76a1.078 1.078 0 001.834.76c.2-.2.314-.478.314-.76 0-.283-.115-.56-.315-.76a1.08 1.08 0 00-.759-.315zm38.672-11.172c-.283 0-.56.115-.76.315-.2.2-.314.477-.314.76 0 .283.114.56.314.76a1.078 1.078 0 001.52 0c.199-.2.314-.478.314-.76 0-.283-.115-.56-.315-.76-.2-.2-.477-.315-.76-.315z" fill="#fff"/></svg>