<svg width="59" height="59" fill="none" xmlns="http://www.w3.org/2000/svg"><g clip-path="url(#clip0)" fill="#fff"><path d="M49.603 14.18H16.89L44.17 3.323a1.225 1.225 0 00-.905-2.277L10.293 14.179h-.93C5.043 14.18 0 16.627 0 23.542v25.26c0 6.916 5.043 9.363 9.363 9.363h40.24c4.32 0 9.363-2.447 9.363-9.362V23.554c.012-6.915-5.006-9.375-9.363-9.375zm6.928 34.623c0 6.241-4.896 6.915-6.915 6.915H9.363c-2.08 0-6.915-.674-6.915-6.915V23.554c0-6.241 4.895-6.915 6.915-6.915h40.24c2.081 0 6.916.674 6.916 6.915l.012 25.249z"/><path d="M12.116 30.004H46.85c.675 0 1.224-.548 1.224-1.224v-7.062c0-.675-.549-1.224-1.224-1.224H12.116c-.675 0-1.224.549-1.224 1.224v7.062c0 .676.549 1.224 1.224 1.224zm33.51-2.448h-8.653v-4.614h8.653v4.614zM13.34 22.942h21.186v4.614H13.34v-4.614zm30.315 11.211a9.08 9.08 0 00-9.08 9.08 9.08 9.08 0 009.08 9.082 9.081 9.081 0 100-18.162zm0 15.714a6.634 6.634 0 116.634-6.633 6.647 6.647 0 01-6.634 6.633zM26.02 42.634a4.688 4.688 0 100 9.376 4.688 4.688 0 000-9.376zm0 6.915a2.24 2.24 0 11-.001-4.478 2.24 2.24 0 010 4.478zm-12.141-6.915a4.688 4.688 0 10.001 9.376 4.688 4.688 0 00-.001-9.376zm0 6.915a2.24 2.24 0 11-.001-4.478 2.24 2.24 0 010 4.478z"/></g><defs><clipPath id="clip0"><path fill="#fff" d="M0 0h59v59H0z"/></clipPath></defs></svg>