<svg width="21" height="21" fill="none" xmlns="http://www.w3.org/2000/svg"><g clip-path="url(#clip0)"><path d="M20.676 2.086c-.257-.314-.64-.486-1.082-.486-.24 0-.494.05-.755.15L1.063 8.536c-.944.36-1.07.9-1.063 1.19.009.29.166.822 1.128 1.128a.569.569 0 00.018.005l3.687 1.056 1.994 5.702c.272.777.882 1.26 1.593 1.26.448 0 .889-.188 1.274-.543l2.281-2.1 3.308 2.664h.001l.032.026.008.007c.368.285.77.436 1.162.436.766 0 1.376-.567 1.553-1.445l2.913-14.381c.117-.578.019-1.094-.276-1.455zm-14.61 9.628L13.18 8.08l-4.43 4.707a.615.615 0 00-.149.274l-.854 3.46-1.68-4.807zm2.795 5.715c-.03.027-.06.051-.089.074l.793-3.21 1.441 1.16-2.145 1.976zM19.746 3.296l-2.912 14.382c-.029.138-.118.458-.348.458-.114 0-.257-.062-.403-.174l-3.749-3.019-.002-.001-2.23-1.796 6.406-6.807a.615.615 0 00-.728-.969L5.244 10.752 1.507 9.683l17.77-6.784a.902.902 0 01.317-.069c.037 0 .104.005.13.035.032.04.074.176.022.431z" fill="#86BC42"/></g><defs><clipPath id="clip0"><path fill="#fff" d="M0 0h21v21H0z"/></clipPath></defs></svg>