<svg width="21" height="21" fill="none" xmlns="http://www.w3.org/2000/svg"><path d="M20.666 3.798c-.467.207-.951.37-1.448.488.548-.52.96-1.171 1.192-1.898a.237.237 0 00-.346-.275 8.357 8.357 0 01-2.214.914.587.587 0 01-.526-.13 4.527 4.527 0 00-2.996-1.131c-.478 0-.96.074-1.434.221a4.386 4.386 0 00-2.956 3.16 4.83 4.83 0 00-.107 1.668.168.168 0 01-.182.183 11.871 11.871 0 01-8.16-4.36.237.237 0 00-.388.03 4.524 4.524 0 00-.613 2.277 4.52 4.52 0 001.35 3.227 4.057 4.057 0 01-1.033-.4.237.237 0 00-.351.204 4.533 4.533 0 002.644 4.177H3c-.253 0-.51-.024-.763-.072a.237.237 0 00-.27.305 4.538 4.538 0 003.585 3.086c-1.386.93-3 1.421-4.68 1.421H.35a.347.347 0 00-.339.261.359.359 0 00.172.396 12.427 12.427 0 006.244 1.684c1.919 0 3.714-.38 5.336-1.132a11.784 11.784 0 003.904-2.926 12.828 12.828 0 002.39-4.004c.532-1.42.813-2.935.813-4.382v-.069a.77.77 0 01.289-.6 8.951 8.951 0 001.8-1.975c.131-.197-.076-.444-.293-.348z" fill="#86BC42"/></svg>