<svg width="42" height="30" fill="none" xmlns="http://www.w3.org/2000/svg"><path d="M0 15C0 6.73 6.73 0 15 0s15 6.73 15 15a14.96 14.96 0 01-4.869 11.05l.014.012-.486.41c-.032.027-.066.05-.098.075-.258.215-.526.418-.799.615a15.315 15.315 0 01-1.162.762l-.2.115c-.335.19-.677.37-1.026.535l-.078.034a14.861 14.861 0 01-4.926 1.326l-.148.011c-.403.034-.81.055-1.222.055-.409 0-.812-.021-1.212-.053-.05-.005-.101-.008-.152-.012-.401-.037-.797-.09-1.188-.156l-.102-.019a14.863 14.863 0 01-3.577-1.12l-.125-.058a15.057 15.057 0 01-2.09-1.194c-.1-.068-.199-.14-.299-.213a14.96 14.96 0 01-.703-.536c-.05-.041-.105-.076-.155-.119l-.499-.416.015-.013A14.961 14.961 0 010 15zm28.91 0c0-7.67-6.24-13.91-13.91-13.91S1.09 7.33 1.09 15c0 4.133 1.815 7.849 4.686 10.398.16-.11.322-.21.487-.293l4.618-2.309a1.21 1.21 0 00.672-1.087v-1.613a9.023 9.023 0 01-.336-.445 11.116 11.116 0 01-1.427-2.795 1.98 1.98 0 01-1.137-1.794V13.13c0-.473.173-.932.483-1.293V9.291c-.028-.284-.128-1.881 1.028-3.199C11.169 4.945 12.796 4.364 15 4.364s3.831.58 4.837 1.728c1.155 1.317 1.055 2.916 1.027 3.198v2.546c.31.36.483.82.483 1.292v1.934c0 .6-.269 1.16-.73 1.538-.442 1.731-1.352 3.041-1.688 3.485v1.579c0 .445.243.854.634 1.068l4.313 2.352c.138.075.274.162.41.26A13.876 13.876 0 0028.91 15zm12.444.354a.5.5 0 000-.708l-3.182-3.182a.5.5 0 10-.707.708L40.293 15l-2.828 2.828a.5.5 0 10.707.707l3.182-3.181zM33 15.5h8v-1h-8v1z" fill="#fff"/></svg>